<?xml version="1.0" encoding="UTF-8" standalone="no"?>
<!DOCTYPE svg PUBLIC "-//W3C//DTD SVG 1.1//EN"
 "http://www.w3.org/Graphics/SVG/1.1/DTD/svg11.dtd">
<!-- Generated by graphviz version 2.30.1 (20180420.1509)
 -->
<!-- Title: G Pages: 1 -->
<svg width="465pt" height="960pt"
 viewBox="0.00 0.00 465.00 960.00" xmlns="http://www.w3.org/2000/svg" xmlns:xlink="http://www.w3.org/1999/xlink">
<g id="graph0" class="graph" transform="scale(1 1) rotate(0) translate(4 956)">
<title>G</title>
<polygon fill="white" stroke="white" points="-4,5 -4,-956 462,-956 462,5 -4,5"/>
<g id="clust1" class="cluster"><title>cluster_Global</title>
<path fill="none" stroke="gray" d="M20,-206C20,-206 437,-206 437,-206 443,-206 449,-212 449,-218 449,-218 449,-932 449,-932 449,-938 443,-944 437,-944 437,-944 20,-944 20,-944 14,-944 8,-938 8,-932 8,-932 8,-218 8,-218 8,-212 14,-206 20,-206"/>
<text text-anchor="middle" x="228.5" y="-931.2" font-family="Times,serif" font-size="11.00" fill="gray">Global</text>
</g>
<g id="clust2" class="cluster"><title>cluster_\QXS</title>
<path fill="none" stroke="gray" d="M28,-214C28,-214 429,-214 429,-214 435,-214 441,-220 441,-226 441,-226 441,-904 441,-904 441,-910 435,-916 429,-916 429,-916 28,-916 28,-916 22,-916 16,-910 16,-904 16,-904 16,-226 16,-226 16,-220 22,-214 28,-214"/>
<text text-anchor="middle" x="228.5" y="-903.2" font-family="Times,serif" font-size="11.00" fill="gray">QXS</text>
</g>
<g id="clust3" class="cluster"><title>cluster_\QXS\WorkerPool</title>
<path fill="none" stroke="gray" d="M36,-222C36,-222 421,-222 421,-222 427,-222 433,-228 433,-234 433,-234 433,-876 433,-876 433,-882 427,-888 421,-888 421,-888 36,-888 36,-888 30,-888 24,-882 24,-876 24,-876 24,-234 24,-234 24,-228 30,-222 36,-222"/>
<text text-anchor="middle" x="228.5" y="-875.2" font-family="Times,serif" font-size="11.00" fill="gray">WorkerPool</text>
</g>
<!-- \\QXS\\WorkerPool\\SemaphoreException -->
<g id="node1" class="node"><title>\\QXS\\WorkerPool\\SemaphoreException</title>
<polygon fill="none" stroke="black" points="401,-482 263,-482 263,-446 401,-446 401,-482"/>
<text text-anchor="middle" x="332" y="-461.2" font-family="Courier,monospace" font-size="11.00">SemaphoreException</text>
</g>
<!-- \\Exception -->
<g id="node15" class="node"><title>\\Exception</title>
<ellipse fill="none" stroke="black" cx="91" cy="-180" rx="48.9926" ry="18"/>
<text text-anchor="middle" x="91" y="-176.3" font-family="Times,serif" font-size="14.00" fill="gray">\Exception</text>
</g>
<!-- \\QXS\\WorkerPool\\SemaphoreException&#45;&gt;\\Exception -->
<g id="edge1" class="edge"><title>\\QXS\\WorkerPool\\SemaphoreException&#45;&gt;\\Exception</title>
<path fill="none" stroke="black" d="M262.543,-452.184C253.866,-448.424 245.697,-443.485 239,-437 165.395,-365.726 233.765,-295.719 167,-218 159.049,-208.744 148.293,-201.482 137.413,-195.897"/>
<polygon fill="none" stroke="black" points="138.839,-192.7 128.302,-191.594 135.85,-199.029 138.839,-192.7"/>
</g>
<!-- \\QXS\\WorkerPool\\SimpleSocketException -->
<g id="node2" class="node"><title>\\QXS\\WorkerPool\\SimpleSocketException</title>
<polygon fill="none" stroke="black" points="411,-590 253,-590 253,-554 411,-554 411,-590"/>
<text text-anchor="middle" x="332" y="-569.2" font-family="Courier,monospace" font-size="11.00">SimpleSocketException</text>
</g>
<!-- \\QXS\\WorkerPool\\SimpleSocketException&#45;&gt;\\Exception -->
<g id="edge2" class="edge"><title>\\QXS\\WorkerPool\\SimpleSocketException&#45;&gt;\\Exception</title>
<path fill="none" stroke="black" d="M252.577,-555.898C247.584,-552.858 242.976,-549.259 239,-545 137.45,-436.219 258.156,-335.628 167,-218 159.596,-208.445 149.133,-201.096 138.366,-195.525"/>
<polygon fill="none" stroke="black" points="139.849,-192.354 129.311,-191.254 136.863,-198.685 139.849,-192.354"/>
</g>
<!-- \\QXS\\WorkerPool\\WorkerPoolException -->
<g id="node3" class="node"><title>\\QXS\\WorkerPool\\WorkerPoolException</title>
<polygon fill="none" stroke="black" points="404.5,-536 259.5,-536 259.5,-500 404.5,-500 404.5,-536"/>
<text text-anchor="middle" x="332" y="-515.2" font-family="Courier,monospace" font-size="11.00">WorkerPoolException</text>
</g>
<!-- \\QXS\\WorkerPool\\WorkerPoolException&#45;&gt;\\Exception -->
<g id="edge3" class="edge"><title>\\QXS\\WorkerPool\\WorkerPoolException&#45;&gt;\\Exception</title>
<path fill="none" stroke="black" d="M259.431,-505.277C251.849,-501.631 244.803,-496.966 239,-491 151.503,-401.055 245.887,-315.584 167,-218 159.401,-208.6 148.87,-201.305 138.099,-195.736"/>
<polygon fill="none" stroke="black" points="139.59,-192.57 129.054,-191.457 136.596,-198.898 139.59,-192.57"/>
</g>
<!-- \\QXS\\WorkerPool\\ProcessDetails -->
<g id="node4" class="node"><title>\\QXS\\WorkerPool\\ProcessDetails</title>
<polygon fill="none" stroke="black" points="387.5,-698 276.5,-698 276.5,-662 387.5,-662 387.5,-698"/>
<text text-anchor="middle" x="332" y="-677.2" font-family="Courier,monospace" font-size="11.00">ProcessDetails</text>
</g>
<!-- \\QXS\\WorkerPool\\Semaphore -->
<g id="node5" class="node"><title>\\QXS\\WorkerPool\\Semaphore</title>
<polygon fill="none" stroke="black" points="129.5,-860 52.5,-860 52.5,-824 129.5,-824 129.5,-860"/>
<text text-anchor="middle" x="91" y="-839.2" font-family="Courier,monospace" font-size="11.00">Semaphore</text>
</g>
<!-- \\QXS\\WorkerPool\\SuperClosureWorker -->
<g id="node6" class="node"><title>\\QXS\\WorkerPool\\SuperClosureWorker</title>
<polygon fill="none" stroke="black" points="401,-806 263,-806 263,-770 401,-770 401,-806"/>
<text text-anchor="middle" x="332" y="-785.2" font-family="Courier,monospace" font-size="11.00">SuperClosureWorker</text>
</g>
<!-- \\QXS\\WorkerPool\\WorkerInterface -->
<g id="node14" class="node"><title>\\QXS\\WorkerPool\\WorkerInterface</title>
<polygon fill="none" stroke="black" points="150,-752 32,-752 32,-716 150,-716 150,-752"/>
<text text-anchor="middle" x="91" y="-731.2" font-family="Courier,monospace" font-size="11.00">WorkerInterface</text>
</g>
<!-- \\QXS\\WorkerPool\\SuperClosureWorker&#45;&gt;\\QXS\\WorkerPool\\WorkerInterface -->
<g id="edge4" class="edge"><title>\\QXS\\WorkerPool\\SuperClosureWorker&#45;&gt;\\QXS\\WorkerPool\\WorkerInterface</title>
<path fill="none" stroke="black" stroke-dasharray="1,5" d="M262.832,-772.598C230.572,-765.309 192.151,-756.628 159.922,-749.346"/>
<polygon fill="none" stroke="black" points="160.658,-745.925 150.133,-747.135 159.116,-752.753 160.658,-745.925"/>
</g>
<!-- \\QXS\\WorkerPool\\NoSemaphore -->
<g id="node7" class="node"><title>\\QXS\\WorkerPool\\NoSemaphore</title>
<polygon fill="none" stroke="black" points="377.5,-860 286.5,-860 286.5,-824 377.5,-824 377.5,-860"/>
<text text-anchor="middle" x="332" y="-839.2" font-family="Courier,monospace" font-size="11.00">NoSemaphore</text>
</g>
<!-- \\QXS\\WorkerPool\\NoSemaphore&#45;&gt;\\QXS\\WorkerPool\\Semaphore -->
<g id="edge5" class="edge"><title>\\QXS\\WorkerPool\\NoSemaphore&#45;&gt;\\QXS\\WorkerPool\\Semaphore</title>
<path fill="none" stroke="black" d="M286.326,-842C244.638,-842 182.619,-842 139.915,-842"/>
<polygon fill="none" stroke="black" points="139.768,-838.5 129.768,-842 139.768,-845.5 139.768,-838.5"/>
</g>
<!-- \\QXS\\WorkerPool\\ClosureWorker -->
<g id="node8" class="node"><title>\\QXS\\WorkerPool\\ClosureWorker</title>
<polygon fill="none" stroke="black" points="384,-752 280,-752 280,-716 384,-716 384,-752"/>
<text text-anchor="middle" x="332" y="-731.2" font-family="Courier,monospace" font-size="11.00">ClosureWorker</text>
</g>
<!-- \\QXS\\WorkerPool\\ClosureWorker&#45;&gt;\\QXS\\WorkerPool\\WorkerInterface -->
<g id="edge6" class="edge"><title>\\QXS\\WorkerPool\\ClosureWorker&#45;&gt;\\QXS\\WorkerPool\\WorkerInterface</title>
<path fill="none" stroke="black" stroke-dasharray="1,5" d="M279.729,-734C245,-734 198.71,-734 160.787,-734"/>
<polygon fill="none" stroke="black" points="160.329,-730.5 150.329,-734 160.329,-737.5 160.329,-730.5"/>
</g>
<!-- \\QXS\\WorkerPool\\ProcessDetailsCollection -->
<g id="node9" class="node"><title>\\QXS\\WorkerPool\\ProcessDetailsCollection</title>
<polygon fill="none" stroke="black" points="421.5,-320 242.5,-320 242.5,-284 421.5,-284 421.5,-320"/>
<text text-anchor="middle" x="332" y="-299.2" font-family="Courier,monospace" font-size="11.00">ProcessDetailsCollection</text>
</g>
<!-- \\IteratorAggregate -->
<g id="node16" class="node"><title>\\IteratorAggregate</title>
<ellipse fill="none" stroke="black" cx="91" cy="-126" rx="75.2868" ry="18"/>
<text text-anchor="middle" x="91" y="-122.3" font-family="Times,serif" font-size="14.00" fill="gray">\IteratorAggregate</text>
</g>
<!-- \\QXS\\WorkerPool\\ProcessDetailsCollection&#45;&gt;\\IteratorAggregate -->
<g id="edge7" class="edge"><title>\\QXS\\WorkerPool\\ProcessDetailsCollection&#45;&gt;\\IteratorAggregate</title>
<path fill="none" stroke="black" stroke-dasharray="1,5" d="M253.059,-283.912C248.08,-281.328 243.334,-278.375 239,-275 189.321,-236.321 215.494,-193.154 167,-153 162.67,-149.414 157.825,-146.287 152.738,-143.562"/>
<polygon fill="none" stroke="black" points="153.911,-140.243 143.38,-139.082 150.888,-146.557 153.911,-140.243"/>
</g>
<!-- \\QXS\\WorkerPool\\SerializableWorkerClosure -->
<g id="node10" class="node"><title>\\QXS\\WorkerPool\\SerializableWorkerClosure</title>
<polygon fill="none" stroke="black" points="424.5,-428 239.5,-428 239.5,-392 424.5,-392 424.5,-428"/>
<text text-anchor="middle" x="332" y="-407.2" font-family="Courier,monospace" font-size="11.00">SerializableWorkerClosure</text>
</g>
<!-- \\QXS\\WorkerPool\\SimpleSocket -->
<g id="node11" class="node"><title>\\QXS\\WorkerPool\\SimpleSocket</title>
<polygon fill="none" stroke="black" points="381,-374 283,-374 283,-338 381,-338 381,-374"/>
<text text-anchor="middle" x="332" y="-353.2" font-family="Courier,monospace" font-size="11.00">SimpleSocket</text>
</g>
<!-- \\QXS\\WorkerPool\\WorkerPool -->
<g id="node12" class="node"><title>\\QXS\\WorkerPool\\WorkerPool</title>
<polygon fill="none" stroke="black" points="374,-266 290,-266 290,-230 374,-230 374,-266"/>
<text text-anchor="middle" x="332" y="-245.2" font-family="Courier,monospace" font-size="11.00">WorkerPool</text>
</g>
<!-- \\Iterator -->
<g id="node17" class="node"><title>\\Iterator</title>
<ellipse fill="none" stroke="black" cx="91" cy="-72" rx="38.9931" ry="18"/>
<text text-anchor="middle" x="91" y="-68.3" font-family="Times,serif" font-size="14.00" fill="gray">\Iterator</text>
</g>
<!-- \\QXS\\WorkerPool\\WorkerPool&#45;&gt;\\Iterator -->
<g id="edge8" class="edge"><title>\\QXS\\WorkerPool\\WorkerPool&#45;&gt;\\Iterator</title>
<path fill="none" stroke="black" stroke-dasharray="1,5" d="M315.551,-229.937C288.369,-199.161 228.973,-136.278 167,-99 157.194,-93.1017 145.898,-88.1968 135.098,-84.259"/>
<polygon fill="none" stroke="black" points="135.97,-80.8578 125.376,-80.9137 133.693,-87.4769 135.97,-80.8578"/>
</g>
<!-- \\Countable -->
<g id="node18" class="node"><title>\\Countable</title>
<ellipse fill="none" stroke="black" cx="91" cy="-18" rx="49.2915" ry="18"/>
<text text-anchor="middle" x="91" y="-14.3" font-family="Times,serif" font-size="14.00" fill="gray">\Countable</text>
</g>
<!-- \\QXS\\WorkerPool\\WorkerPool&#45;&gt;\\Countable -->
<g id="edge9" class="edge"><title>\\QXS\\WorkerPool\\WorkerPool&#45;&gt;\\Countable</title>
<path fill="none" stroke="black" stroke-dasharray="1,5" d="M320.986,-229.768C298.52,-190.472 240.279,-97.1389 167,-45 159.465,-39.6384 150.752,-35.2361 141.991,-31.6577"/>
<polygon fill="none" stroke="black" points="143.111,-28.3394 132.519,-28.0916 140.645,-34.8905 143.111,-28.3394"/>
</g>
<!-- \\QXS\\WorkerPool\\Worker -->
<g id="node13" class="node"><title>\\QXS\\WorkerPool\\Worker</title>
<polygon fill="none" stroke="black" points="360.5,-644 303.5,-644 303.5,-608 360.5,-608 360.5,-644"/>
<text text-anchor="middle" x="332" y="-623.2" font-family="Courier,monospace" font-size="11.00">Worker</text>
</g>
<!-- \\QXS\\WorkerPool\\Worker&#45;&gt;\\QXS\\WorkerPool\\WorkerInterface -->
<g id="edge10" class="edge"><title>\\QXS\\WorkerPool\\Worker&#45;&gt;\\QXS\\WorkerPool\\WorkerInterface</title>
<path fill="none" stroke="black" d="M303.491,-632.396C284.921,-637.118 260.053,-644.234 239,-653 199.995,-669.241 158.015,-693.07 128.944,-710.681"/>
<polygon fill="none" stroke="black" points="127.061,-707.73 120.354,-715.931 130.712,-713.702 127.061,-707.73"/>
</g>
</g>
</svg>
