<?xml version="1.0" encoding="UTF-8" standalone="no"?>
<!DOCTYPE svg PUBLIC "-//W3C//DTD SVG 1.1//EN"
 "http://www.w3.org/Graphics/SVG/1.1/DTD/svg11.dtd">
<!-- Generated by graphviz version 2.26.0 (20091210.2329)
 -->
<!-- Title: G Pages: 1 -->
<svg width="339pt" height="597pt"
 viewBox="0.00 0.00 339.00 597.00" xmlns="http://www.w3.org/2000/svg" xmlns:xlink="http://www.w3.org/1999/xlink">
<g id="graph1" class="graph" transform="scale(1 1) rotate(0) translate(4 593)">
<title>G</title>
<polygon fill="white" stroke="white" points="-4,5 -4,-593 336,-593 336,5 -4,5"/>
<g id="graph2" class="cluster"><title>cluster_Global</title>
<polyline fill="none" stroke="gray" points="20,-158 311,-158 "/>
<path fill="none" stroke="gray" d="M311,-158C317,-158 323,-164 323,-170"/>
<polyline fill="none" stroke="gray" points="323,-170 323,-569 "/>
<path fill="none" stroke="gray" d="M323,-569C323,-575 317,-581 311,-581"/>
<polyline fill="none" stroke="gray" points="311,-581 20,-581 "/>
<path fill="none" stroke="gray" d="M20,-581C14,-581 8,-575 8,-569"/>
<polyline fill="none" stroke="gray" points="8,-569 8,-170 "/>
<path fill="none" stroke="gray" d="M8,-170C8,-164 14,-158 20,-158"/>
<text text-anchor="middle" x="165.5" y="-567.1" font-family="Times Roman,serif" font-size="11.00" fill="gray">Global</text>
</g>
<g id="graph3" class="cluster"><title>cluster_\QXS</title>
<polyline fill="none" stroke="gray" points="28,-166 303,-166 "/>
<path fill="none" stroke="gray" d="M303,-166C309,-166 315,-172 315,-178"/>
<polyline fill="none" stroke="gray" points="315,-178 315,-538 "/>
<path fill="none" stroke="gray" d="M315,-538C315,-544 309,-550 303,-550"/>
<polyline fill="none" stroke="gray" points="303,-550 28,-550 "/>
<path fill="none" stroke="gray" d="M28,-550C22,-550 16,-544 16,-538"/>
<polyline fill="none" stroke="gray" points="16,-538 16,-178 "/>
<path fill="none" stroke="gray" d="M16,-178C16,-172 22,-166 28,-166"/>
<text text-anchor="middle" x="165.5" y="-536.1" font-family="Times Roman,serif" font-size="11.00" fill="gray">QXS</text>
</g>
<g id="graph4" class="cluster"><title>cluster_\QXS\WorkerPool</title>
<polyline fill="none" stroke="gray" points="36,-174 295,-174 "/>
<path fill="none" stroke="gray" d="M295,-174C301,-174 307,-180 307,-186"/>
<polyline fill="none" stroke="gray" points="307,-186 307,-507 "/>
<path fill="none" stroke="gray" d="M307,-507C307,-513 301,-519 295,-519"/>
<polyline fill="none" stroke="gray" points="295,-519 36,-519 "/>
<path fill="none" stroke="gray" d="M36,-519C30,-519 24,-513 24,-507"/>
<polyline fill="none" stroke="gray" points="24,-507 24,-186 "/>
<path fill="none" stroke="gray" d="M24,-186C24,-180 30,-174 36,-174"/>
<text text-anchor="middle" x="165.5" y="-505.1" font-family="Times Roman,serif" font-size="11.00" fill="gray">WorkerPool</text>
</g>
<!-- \\QXS\\WorkerPool\\SemaphoreException -->
<g id="node4" class="node"><title>\\QXS\\WorkerPool\\SemaphoreException</title>
<polygon fill="none" stroke="black" points="297,-326 187,-326 187,-290 297,-290 297,-326"/>
<text text-anchor="middle" x="242" y="-305.6" font-family="Times Roman,serif" font-size="11.00">SemaphoreException</text>
</g>
<!-- \\Exception -->
<g id="node12" class="node"><title>\\Exception</title>
<ellipse fill="none" stroke="black" cx="59" cy="-131" rx="53.033" ry="19.0919"/>
<text text-anchor="middle" x="59" y="-127.9" font-family="Times Roman,serif" font-size="14.00" fill="gray">\Exception</text>
</g>
<!-- \\QXS\\WorkerPool\\SemaphoreException&#45;&gt;\\Exception -->
<g id="edge5" class="edge"><title>\\QXS\\WorkerPool\\SemaphoreException&#45;&gt;\\Exception</title>
<path fill="none" stroke="black" d="M197.512,-289.998C193.059,-287.314 188.791,-284.317 185,-281 140.748,-242.276 153.526,-212.608 113,-170 107.396,-164.108 100.797,-158.511 94.1719,-153.491"/>
<polygon fill="none" stroke="black" points="95.9927,-150.488 85.8393,-147.462 91.8893,-156.159 95.9927,-150.488"/>
</g>
<!-- \\QXS\\WorkerPool\\SimpleSocket -->
<g id="node5" class="node"><title>\\QXS\\WorkerPool\\SimpleSocket</title>
<polygon fill="none" stroke="black" points="280,-434 204,-434 204,-398 280,-398 280,-434"/>
<text text-anchor="middle" x="242" y="-413.6" font-family="Times Roman,serif" font-size="11.00">SimpleSocket</text>
</g>
<!-- \\QXS\\WorkerPool\\WorkerPoolException -->
<g id="node6" class="node"><title>\\QXS\\WorkerPool\\WorkerPoolException</title>
<polygon fill="none" stroke="black" points="299,-380 185,-380 185,-344 299,-344 299,-380"/>
<text text-anchor="middle" x="242" y="-359.6" font-family="Times Roman,serif" font-size="11.00">WorkerPoolException</text>
</g>
<!-- \\QXS\\WorkerPool\\WorkerPoolException&#45;&gt;\\Exception -->
<g id="edge7" class="edge"><title>\\QXS\\WorkerPool\\WorkerPoolException&#45;&gt;\\Exception</title>
<path fill="none" stroke="black" d="M195.81,-343.864C191.886,-341.247 188.201,-338.302 185,-335 129.305,-277.556 163.21,-232.296 113,-170 107.999,-163.796 101.779,-158.106 95.3565,-153.103"/>
<polygon fill="none" stroke="black" points="97.3327,-150.212 87.1912,-147.146 93.2073,-155.868 97.3327,-150.212"/>
</g>
<!-- \\QXS\\WorkerPool\\WorkerPool -->
<g id="node7" class="node"><title>\\QXS\\WorkerPool\\WorkerPool</title>
<polygon fill="none" stroke="black" points="277,-218 207,-218 207,-182 277,-182 277,-218"/>
<text text-anchor="middle" x="242" y="-197.6" font-family="Times Roman,serif" font-size="11.00">WorkerPool</text>
</g>
<!-- \\Iterator -->
<g id="node15" class="node"><title>\\Iterator</title>
<ellipse fill="none" stroke="black" cx="59" cy="-75" rx="41.9273" ry="19.0919"/>
<text text-anchor="middle" x="59" y="-71.9" font-family="Times Roman,serif" font-size="14.00" fill="gray">\Iterator</text>
</g>
<!-- \\QXS\\WorkerPool\\WorkerPool&#45;&gt;\\Iterator -->
<g id="edge9" class="edge"><title>\\QXS\\WorkerPool\\WorkerPool&#45;&gt;\\Iterator</title>
<path fill="none" stroke="black" stroke-dasharray="1,5" d="M219.977,-181.647C194.924,-161.201 152.371,-127.769 113,-103 107.961,-99.8298 102.522,-96.6981 97.1048,-93.7415"/>
<polygon fill="none" stroke="black" points="98.5557,-90.5492 88.0815,-88.9554 95.2757,-96.7332 98.5557,-90.5492"/>
</g>
<!-- \\Countable -->
<g id="node17" class="node"><title>\\Countable</title>
<ellipse fill="none" stroke="black" cx="59" cy="-19" rx="53.2379" ry="19.0919"/>
<text text-anchor="middle" x="59" y="-15.9" font-family="Times Roman,serif" font-size="14.00" fill="gray">\Countable</text>
</g>
<!-- \\QXS\\WorkerPool\\WorkerPool&#45;&gt;\\Countable -->
<g id="edge11" class="edge"><title>\\QXS\\WorkerPool\\WorkerPool&#45;&gt;\\Countable</title>
<path fill="none" stroke="black" stroke-dasharray="1,5" d="M230.33,-181.982C209.676,-151.18 164.022,-87.783 113,-47 109.471,-44.1792 105.613,-41.5192 101.636,-39.0451"/>
<polygon fill="none" stroke="black" points="103.224,-35.9202 92.8164,-33.9354 99.7144,-41.9771 103.224,-35.9202"/>
</g>
<!-- \\QXS\\WorkerPool\\Semaphore -->
<g id="node8" class="node"><title>\\QXS\\WorkerPool\\Semaphore</title>
<polygon fill="none" stroke="black" points="275,-272 209,-272 209,-236 275,-236 275,-272"/>
<text text-anchor="middle" x="242" y="-251.6" font-family="Times Roman,serif" font-size="11.00">Semaphore</text>
</g>
<!-- \\QXS\\WorkerPool\\ClosureWorker -->
<g id="node9" class="node"><title>\\QXS\\WorkerPool\\ClosureWorker</title>
<polygon fill="none" stroke="black" points="284,-488 200,-488 200,-452 284,-452 284,-488"/>
<text text-anchor="middle" x="242" y="-467.6" font-family="Times Roman,serif" font-size="11.00">ClosureWorker</text>
</g>
<!-- \\QXS\\WorkerPool\\Worker -->
<g id="node10" class="node"><title>\\QXS\\WorkerPool\\Worker</title>
<polygon fill="none" stroke="black" points="86,-488 32,-488 32,-452 86,-452 86,-488"/>
<text text-anchor="middle" x="59" y="-467.6" font-family="Times Roman,serif" font-size="11.00">Worker</text>
</g>
<!-- \\QXS\\WorkerPool\\ClosureWorker&#45;&gt;\\QXS\\WorkerPool\\Worker -->
<g id="edge13" class="edge"><title>\\QXS\\WorkerPool\\ClosureWorker&#45;&gt;\\QXS\\WorkerPool\\Worker</title>
<path fill="none" stroke="black" stroke-dasharray="1,5" d="M199.095,-470C167.815,-470 125.861,-470 96.0401,-470"/>
<polygon fill="none" stroke="black" points="96.0354,-466.5 86.0353,-470 96.0353,-473.5 96.0354,-466.5"/>
</g>
</g>
</svg>
