<?xml version="1.0" encoding="UTF-8" standalone="no"?>
<!DOCTYPE svg PUBLIC "-//W3C//DTD SVG 1.1//EN"
 "http://www.w3.org/Graphics/SVG/1.1/DTD/svg11.dtd">
<!-- Generated by graphviz version 2.30.1 (20150306.0020)
 -->
<!-- Title: G Pages: 1 -->
<svg width="465pt" height="960pt"
 viewBox="0.00 0.00 465.00 960.00" xmlns="http://www.w3.org/2000/svg" xmlns:xlink="http://www.w3.org/1999/xlink">
<g id="graph0" class="graph" transform="scale(1 1) rotate(0) translate(4 956)">
<title>G</title>
<polygon fill="white" stroke="white" points="-4,5 -4,-956 462,-956 462,5 -4,5"/>
<g id="clust1" class="cluster"><title>cluster_Global</title>
<path fill="none" stroke="gray" d="M20,-206C20,-206 437,-206 437,-206 443,-206 449,-212 449,-218 449,-218 449,-932 449,-932 449,-938 443,-944 437,-944 437,-944 20,-944 20,-944 14,-944 8,-938 8,-932 8,-932 8,-218 8,-218 8,-212 14,-206 20,-206"/>
<text text-anchor="middle" x="228.5" y="-931.2" font-family="Times,serif" font-size="11.00" fill="gray">Global</text>
</g>
<g id="clust2" class="cluster"><title>cluster_\QXS</title>
<path fill="none" stroke="gray" d="M28,-214C28,-214 429,-214 429,-214 435,-214 441,-220 441,-226 441,-226 441,-904 441,-904 441,-910 435,-916 429,-916 429,-916 28,-916 28,-916 22,-916 16,-910 16,-904 16,-904 16,-226 16,-226 16,-220 22,-214 28,-214"/>
<text text-anchor="middle" x="228.5" y="-903.2" font-family="Times,serif" font-size="11.00" fill="gray">QXS</text>
</g>
<g id="clust3" class="cluster"><title>cluster_\QXS\WorkerPool</title>
<path fill="none" stroke="gray" d="M36,-222C36,-222 421,-222 421,-222 427,-222 433,-228 433,-234 433,-234 433,-876 433,-876 433,-882 427,-888 421,-888 421,-888 36,-888 36,-888 30,-888 24,-882 24,-876 24,-876 24,-234 24,-234 24,-228 30,-222 36,-222"/>
<text text-anchor="middle" x="228.5" y="-875.2" font-family="Times,serif" font-size="11.00" fill="gray">WorkerPool</text>
</g>
<!-- \\QXS\\WorkerPool\\SemaphoreException -->
<g id="node1" class="node"><title>\\QXS\\WorkerPool\\SemaphoreException</title>
<polygon fill="none" stroke="black" points="401,-536 263,-536 263,-500 401,-500 401,-536"/>
<text text-anchor="middle" x="332" y="-515.2" font-family="Courier,monospace" font-size="11.00">SemaphoreException</text>
</g>
<!-- \\Exception -->
<g id="node14" class="node"><title>\\Exception</title>
<ellipse fill="none" stroke="black" cx="91" cy="-180" rx="48.9926" ry="18"/>
<text text-anchor="middle" x="91" y="-176.3" font-family="Times,serif" font-size="14.00" fill="gray">\Exception</text>
</g>
<!-- \\QXS\\WorkerPool\\SemaphoreException&#45;&gt;\\Exception -->
<g id="edge1" class="edge"><title>\\QXS\\WorkerPool\\SemaphoreException&#45;&gt;\\Exception</title>
<path fill="none" stroke="black" d="M262.645,-506.748C253.847,-502.912 245.616,-497.801 239,-491 151.503,-401.055 245.887,-315.584 167,-218 159.401,-208.6 148.87,-201.305 138.099,-195.736"/>
<polygon fill="none" stroke="black" points="139.59,-192.57 129.054,-191.457 136.596,-198.898 139.59,-192.57"/>
</g>
<!-- \\QXS\\WorkerPool\\SimpleSocketException -->
<g id="node2" class="node"><title>\\QXS\\WorkerPool\\SimpleSocketException</title>
<polygon fill="none" stroke="black" points="411,-482 253,-482 253,-446 411,-446 411,-482"/>
<text text-anchor="middle" x="332" y="-461.2" font-family="Courier,monospace" font-size="11.00">SimpleSocketException</text>
</g>
<!-- \\QXS\\WorkerPool\\SimpleSocketException&#45;&gt;\\Exception -->
<g id="edge2" class="edge"><title>\\QXS\\WorkerPool\\SimpleSocketException&#45;&gt;\\Exception</title>
<path fill="none" stroke="black" d="M252.61,-447.184C247.674,-444.305 243.066,-440.937 239,-437 165.395,-365.726 233.765,-295.719 167,-218 159.049,-208.744 148.293,-201.482 137.413,-195.897"/>
<polygon fill="none" stroke="black" points="138.839,-192.7 128.302,-191.594 135.85,-199.029 138.839,-192.7"/>
</g>
<!-- \\QXS\\WorkerPool\\WorkerPoolException -->
<g id="node3" class="node"><title>\\QXS\\WorkerPool\\WorkerPoolException</title>
<polygon fill="none" stroke="black" points="404.5,-428 259.5,-428 259.5,-392 404.5,-392 404.5,-428"/>
<text text-anchor="middle" x="332" y="-407.2" font-family="Courier,monospace" font-size="11.00">WorkerPoolException</text>
</g>
<!-- \\QXS\\WorkerPool\\WorkerPoolException&#45;&gt;\\Exception -->
<g id="edge3" class="edge"><title>\\QXS\\WorkerPool\\WorkerPoolException&#45;&gt;\\Exception</title>
<path fill="none" stroke="black" d="M259.362,-395.954C251.975,-392.534 244.994,-388.283 239,-383 178.974,-330.098 221.926,-276.18 167,-218 158.624,-209.127 147.721,-201.997 136.834,-196.418"/>
<polygon fill="none" stroke="black" points="138.283,-193.231 127.749,-192.092 135.273,-199.551 138.283,-193.231"/>
</g>
<!-- \\QXS\\WorkerPool\\ProcessDetails -->
<g id="node4" class="node"><title>\\QXS\\WorkerPool\\ProcessDetails</title>
<polygon fill="none" stroke="black" points="387.5,-698 276.5,-698 276.5,-662 387.5,-662 387.5,-698"/>
<text text-anchor="middle" x="332" y="-677.2" font-family="Courier,monospace" font-size="11.00">ProcessDetails</text>
</g>
<!-- \\QXS\\WorkerPool\\Semaphore -->
<g id="node5" class="node"><title>\\QXS\\WorkerPool\\Semaphore</title>
<polygon fill="none" stroke="black" points="370.5,-644 293.5,-644 293.5,-608 370.5,-608 370.5,-644"/>
<text text-anchor="middle" x="332" y="-623.2" font-family="Courier,monospace" font-size="11.00">Semaphore</text>
</g>
<!-- \\QXS\\WorkerPool\\SimpleSocket -->
<g id="node6" class="node"><title>\\QXS\\WorkerPool\\SimpleSocket</title>
<polygon fill="none" stroke="black" points="381,-590 283,-590 283,-554 381,-554 381,-590"/>
<text text-anchor="middle" x="332" y="-569.2" font-family="Courier,monospace" font-size="11.00">SimpleSocket</text>
</g>
<!-- \\QXS\\WorkerPool\\WorkerPool -->
<g id="node7" class="node"><title>\\QXS\\WorkerPool\\WorkerPool</title>
<polygon fill="none" stroke="black" points="374,-320 290,-320 290,-284 374,-284 374,-320"/>
<text text-anchor="middle" x="332" y="-299.2" font-family="Courier,monospace" font-size="11.00">WorkerPool</text>
</g>
<!-- \\Iterator -->
<g id="node15" class="node"><title>\\Iterator</title>
<ellipse fill="none" stroke="black" cx="91" cy="-126" rx="38.9931" ry="18"/>
<text text-anchor="middle" x="91" y="-122.3" font-family="Times,serif" font-size="14.00" fill="gray">\Iterator</text>
</g>
<!-- \\QXS\\WorkerPool\\WorkerPool&#45;&gt;\\Iterator -->
<g id="edge4" class="edge"><title>\\QXS\\WorkerPool\\WorkerPool&#45;&gt;\\Iterator</title>
<path fill="none" stroke="black" stroke-dasharray="1,5" d="M289.921,-296.751C272.812,-292.935 253.579,-286.351 239,-275 189.321,-236.321 215.494,-193.154 167,-153 158.268,-145.77 147.444,-140.402 136.762,-136.445"/>
<polygon fill="none" stroke="black" points="137.649,-133.051 127.055,-133.195 135.426,-139.689 137.649,-133.051"/>
</g>
<!-- \\Countable -->
<g id="node16" class="node"><title>\\Countable</title>
<ellipse fill="none" stroke="black" cx="91" cy="-72" rx="49.2915" ry="18"/>
<text text-anchor="middle" x="91" y="-68.3" font-family="Times,serif" font-size="14.00" fill="gray">\Countable</text>
</g>
<!-- \\QXS\\WorkerPool\\WorkerPool&#45;&gt;\\Countable -->
<g id="edge5" class="edge"><title>\\QXS\\WorkerPool\\WorkerPool&#45;&gt;\\Countable</title>
<path fill="none" stroke="black" stroke-dasharray="1,5" d="M289.56,-297.836C272.183,-294.217 252.843,-287.488 239,-275 176.246,-218.39 228.025,-157.469 167,-99 160.538,-92.809 152.556,-88.0229 144.233,-84.327"/>
<polygon fill="none" stroke="black" points="145.342,-81.0022 134.755,-80.6006 142.781,-87.5168 145.342,-81.0022"/>
</g>
<!-- \\QXS\\WorkerPool\\ClosureWorker -->
<g id="node8" class="node"><title>\\QXS\\WorkerPool\\ClosureWorker</title>
<polygon fill="none" stroke="black" points="384,-860 280,-860 280,-824 384,-824 384,-860"/>
<text text-anchor="middle" x="332" y="-839.2" font-family="Courier,monospace" font-size="11.00">ClosureWorker</text>
</g>
<!-- \\QXS\\WorkerPool\\WorkerInterface -->
<g id="node13" class="node"><title>\\QXS\\WorkerPool\\WorkerInterface</title>
<polygon fill="none" stroke="black" points="150,-806 32,-806 32,-770 150,-770 150,-806"/>
<text text-anchor="middle" x="91" y="-785.2" font-family="Courier,monospace" font-size="11.00">WorkerInterface</text>
</g>
<!-- \\QXS\\WorkerPool\\ClosureWorker&#45;&gt;\\QXS\\WorkerPool\\WorkerInterface -->
<g id="edge6" class="edge"><title>\\QXS\\WorkerPool\\ClosureWorker&#45;&gt;\\QXS\\WorkerPool\\WorkerInterface</title>
<path fill="none" stroke="black" stroke-dasharray="1,5" d="M279.729,-830.416C244.852,-822.536 198.314,-812.021 160.301,-803.432"/>
<polygon fill="none" stroke="black" points="160.854,-799.969 150.329,-801.179 159.311,-806.797 160.854,-799.969"/>
</g>
<!-- \\QXS\\WorkerPool\\ProcessDetailsCollection -->
<g id="node9" class="node"><title>\\QXS\\WorkerPool\\ProcessDetailsCollection</title>
<polygon fill="none" stroke="black" points="421.5,-266 242.5,-266 242.5,-230 421.5,-230 421.5,-266"/>
<text text-anchor="middle" x="332" y="-245.2" font-family="Courier,monospace" font-size="11.00">ProcessDetailsCollection</text>
</g>
<!-- \\IteratorAggregate -->
<g id="node17" class="node"><title>\\IteratorAggregate</title>
<ellipse fill="none" stroke="black" cx="91" cy="-18" rx="75.2868" ry="18"/>
<text text-anchor="middle" x="91" y="-14.3" font-family="Times,serif" font-size="14.00" fill="gray">\IteratorAggregate</text>
</g>
<!-- \\QXS\\WorkerPool\\ProcessDetailsCollection&#45;&gt;\\IteratorAggregate -->
<g id="edge7" class="edge"><title>\\QXS\\WorkerPool\\ProcessDetailsCollection&#45;&gt;\\IteratorAggregate</title>
<path fill="none" stroke="black" stroke-dasharray="1,5" d="M320.986,-229.768C298.52,-190.472 240.279,-97.1389 167,-45 162.088,-41.505 156.676,-38.4176 151.076,-35.7004"/>
<polygon fill="none" stroke="black" points="152.091,-32.3218 141.53,-31.4702 149.255,-38.7216 152.091,-32.3218"/>
</g>
<!-- \\QXS\\WorkerPool\\SerializableWorkerClosure -->
<g id="node10" class="node"><title>\\QXS\\WorkerPool\\SerializableWorkerClosure</title>
<polygon fill="none" stroke="black" points="424.5,-374 239.5,-374 239.5,-338 424.5,-338 424.5,-374"/>
<text text-anchor="middle" x="332" y="-353.2" font-family="Courier,monospace" font-size="11.00">SerializableWorkerClosure</text>
</g>
<!-- \\QXS\\WorkerPool\\SuperClosureWorker -->
<g id="node11" class="node"><title>\\QXS\\WorkerPool\\SuperClosureWorker</title>
<polygon fill="none" stroke="black" points="401,-806 263,-806 263,-770 401,-770 401,-806"/>
<text text-anchor="middle" x="332" y="-785.2" font-family="Courier,monospace" font-size="11.00">SuperClosureWorker</text>
</g>
<!-- \\QXS\\WorkerPool\\SuperClosureWorker&#45;&gt;\\QXS\\WorkerPool\\WorkerInterface -->
<g id="edge8" class="edge"><title>\\QXS\\WorkerPool\\SuperClosureWorker&#45;&gt;\\QXS\\WorkerPool\\WorkerInterface</title>
<path fill="none" stroke="black" stroke-dasharray="1,5" d="M262.832,-788C230.711,-788 192.482,-788 160.339,-788"/>
<polygon fill="none" stroke="black" points="160.133,-784.5 150.133,-788 160.133,-791.5 160.133,-784.5"/>
</g>
<!-- \\QXS\\WorkerPool\\Worker -->
<g id="node12" class="node"><title>\\QXS\\WorkerPool\\Worker</title>
<polygon fill="none" stroke="black" points="360.5,-752 303.5,-752 303.5,-716 360.5,-716 360.5,-752"/>
<text text-anchor="middle" x="332" y="-731.2" font-family="Courier,monospace" font-size="11.00">Worker</text>
</g>
<!-- \\QXS\\WorkerPool\\Worker&#45;&gt;\\QXS\\WorkerPool\\WorkerInterface -->
<g id="edge9" class="edge"><title>\\QXS\\WorkerPool\\Worker&#45;&gt;\\QXS\\WorkerPool\\WorkerInterface</title>
<path fill="none" stroke="black" d="M303.116,-740.3C268.283,-748.17 207.497,-761.905 160.068,-772.621"/>
<polygon fill="none" stroke="black" points="159.147,-769.24 150.164,-774.858 160.689,-776.068 159.147,-769.24"/>
</g>
</g>
</svg>
