<?xml version="1.0" encoding="UTF-8" standalone="no"?>
<!DOCTYPE svg PUBLIC "-//W3C//DTD SVG 1.1//EN"
 "http://www.w3.org/Graphics/SVG/1.1/DTD/svg11.dtd">
<!-- Generated by graphviz version 2.26.0 (20091210.2329)
 -->
<!-- Title: G Pages: 1 -->
<svg width="347pt" height="651pt"
 viewBox="0.00 0.00 347.00 651.00" xmlns="http://www.w3.org/2000/svg" xmlns:xlink="http://www.w3.org/1999/xlink">
<g id="graph1" class="graph" transform="scale(1 1) rotate(0) translate(4 647)">
<title>G</title>
<polygon fill="white" stroke="white" points="-4,5 -4,-647 344,-647 344,5 -4,5"/>
<g id="graph2" class="cluster"><title>cluster_Global</title>
<polyline fill="none" stroke="gray" points="20,-158 319,-158 "/>
<path fill="none" stroke="gray" d="M319,-158C325,-158 331,-164 331,-170"/>
<polyline fill="none" stroke="gray" points="331,-170 331,-623 "/>
<path fill="none" stroke="gray" d="M331,-623C331,-629 325,-635 319,-635"/>
<polyline fill="none" stroke="gray" points="319,-635 20,-635 "/>
<path fill="none" stroke="gray" d="M20,-635C14,-635 8,-629 8,-623"/>
<polyline fill="none" stroke="gray" points="8,-623 8,-170 "/>
<path fill="none" stroke="gray" d="M8,-170C8,-164 14,-158 20,-158"/>
<text text-anchor="middle" x="169.5" y="-621.1" font-family="Times Roman,serif" font-size="11.00" fill="gray">Global</text>
</g>
<g id="graph3" class="cluster"><title>cluster_\QXS</title>
<polyline fill="none" stroke="gray" points="28,-166 311,-166 "/>
<path fill="none" stroke="gray" d="M311,-166C317,-166 323,-172 323,-178"/>
<polyline fill="none" stroke="gray" points="323,-178 323,-592 "/>
<path fill="none" stroke="gray" d="M323,-592C323,-598 317,-604 311,-604"/>
<polyline fill="none" stroke="gray" points="311,-604 28,-604 "/>
<path fill="none" stroke="gray" d="M28,-604C22,-604 16,-598 16,-592"/>
<polyline fill="none" stroke="gray" points="16,-592 16,-178 "/>
<path fill="none" stroke="gray" d="M16,-178C16,-172 22,-166 28,-166"/>
<text text-anchor="middle" x="169.5" y="-590.1" font-family="Times Roman,serif" font-size="11.00" fill="gray">QXS</text>
</g>
<g id="graph4" class="cluster"><title>cluster_\QXS\WorkerPool</title>
<polyline fill="none" stroke="gray" points="36,-174 303,-174 "/>
<path fill="none" stroke="gray" d="M303,-174C309,-174 315,-180 315,-186"/>
<polyline fill="none" stroke="gray" points="315,-186 315,-561 "/>
<path fill="none" stroke="gray" d="M315,-561C315,-567 309,-573 303,-573"/>
<polyline fill="none" stroke="gray" points="303,-573 36,-573 "/>
<path fill="none" stroke="gray" d="M36,-573C30,-573 24,-567 24,-561"/>
<polyline fill="none" stroke="gray" points="24,-561 24,-186 "/>
<path fill="none" stroke="gray" d="M24,-186C24,-180 30,-174 36,-174"/>
<text text-anchor="middle" x="169.5" y="-559.1" font-family="Times Roman,serif" font-size="11.00" fill="gray">WorkerPool</text>
</g>
<!-- \\QXS\\WorkerPool\\Semaphore -->
<g id="node4" class="node"><title>\\QXS\\WorkerPool\\Semaphore</title>
<polygon fill="none" stroke="black" points="279,-542 213,-542 213,-506 279,-506 279,-542"/>
<text text-anchor="middle" x="246" y="-521.6" font-family="Times Roman,serif" font-size="11.00">Semaphore</text>
</g>
<!-- \\QXS\\WorkerPool\\WorkerPool -->
<g id="node5" class="node"><title>\\QXS\\WorkerPool\\WorkerPool</title>
<polygon fill="none" stroke="black" points="281,-434 211,-434 211,-398 281,-398 281,-434"/>
<text text-anchor="middle" x="246" y="-413.6" font-family="Times Roman,serif" font-size="11.00">WorkerPool</text>
</g>
<!-- \\Iterator -->
<g id="node13" class="node"><title>\\Iterator</title>
<ellipse fill="none" stroke="black" cx="59" cy="-131" rx="41.9273" ry="19.0919"/>
<text text-anchor="middle" x="59" y="-127.9" font-family="Times Roman,serif" font-size="14.00" fill="gray">\Iterator</text>
</g>
<!-- \\QXS\\WorkerPool\\WorkerPool&#45;&gt;\\Iterator -->
<g id="edge5" class="edge"><title>\\QXS\\WorkerPool\\WorkerPool&#45;&gt;\\Iterator</title>
<path fill="none" stroke="black" stroke-dasharray="1,5" d="M210.825,-406.275C201.399,-402.232 191.919,-396.64 185,-389 116.227,-313.052 173.485,-252.7 113,-170 108.056,-163.24 101.587,-157.183 94.8528,-151.974"/>
<polygon fill="none" stroke="black" points="96.4444,-148.809 86.2746,-145.838 92.3719,-154.502 96.4444,-148.809"/>
</g>
<!-- \\Countable -->
<g id="node15" class="node"><title>\\Countable</title>
<ellipse fill="none" stroke="black" cx="59" cy="-75" rx="53.2379" ry="19.0919"/>
<text text-anchor="middle" x="59" y="-71.9" font-family="Times Roman,serif" font-size="14.00" fill="gray">\Countable</text>
</g>
<!-- \\QXS\\WorkerPool\\WorkerPool&#45;&gt;\\Countable -->
<g id="edge7" class="edge"><title>\\QXS\\WorkerPool\\WorkerPool&#45;&gt;\\Countable</title>
<path fill="none" stroke="black" stroke-dasharray="1,5" d="M210.791,-406.718C201.251,-402.673 191.718,-396.97 185,-389 100.522,-288.777 194.349,-205.779 113,-103 110.527,-99.8754 107.61,-97.0636 104.433,-94.5402"/>
<polygon fill="none" stroke="black" points="106.337,-91.6026 96.1069,-88.8482 102.387,-97.3813 106.337,-91.6026"/>
</g>
<!-- \\QXS\\WorkerPool\\ClosureWorker -->
<g id="node6" class="node"><title>\\QXS\\WorkerPool\\ClosureWorker</title>
<polygon fill="none" stroke="black" points="288,-488 204,-488 204,-452 288,-452 288,-488"/>
<text text-anchor="middle" x="246" y="-467.6" font-family="Times Roman,serif" font-size="11.00">ClosureWorker</text>
</g>
<!-- \\QXS\\WorkerPool\\Worker -->
<g id="node11" class="node"><title>\\QXS\\WorkerPool\\Worker</title>
<polygon fill="none" stroke="black" points="86,-488 32,-488 32,-452 86,-452 86,-488"/>
<text text-anchor="middle" x="59" y="-467.6" font-family="Times Roman,serif" font-size="11.00">Worker</text>
</g>
<!-- \\QXS\\WorkerPool\\ClosureWorker&#45;&gt;\\QXS\\WorkerPool\\Worker -->
<g id="edge9" class="edge"><title>\\QXS\\WorkerPool\\ClosureWorker&#45;&gt;\\QXS\\WorkerPool\\Worker</title>
<path fill="none" stroke="black" stroke-dasharray="1,5" d="M203.098,-470C170.882,-470 127.196,-470 96.3972,-470"/>
<polygon fill="none" stroke="black" points="96.0806,-466.5 86.0806,-470 96.0805,-473.5 96.0806,-466.5"/>
</g>
<!-- \\QXS\\WorkerPool\\WorkerPoolException -->
<g id="node7" class="node"><title>\\QXS\\WorkerPool\\WorkerPoolException</title>
<polygon fill="none" stroke="black" points="303,-380 189,-380 189,-344 303,-344 303,-380"/>
<text text-anchor="middle" x="246" y="-359.6" font-family="Times Roman,serif" font-size="11.00">WorkerPoolException</text>
</g>
<!-- \\Exception -->
<g id="node18" class="node"><title>\\Exception</title>
<ellipse fill="none" stroke="black" cx="59" cy="-19" rx="53.033" ry="19.0919"/>
<text text-anchor="middle" x="59" y="-15.9" font-family="Times Roman,serif" font-size="14.00" fill="gray">\Exception</text>
</g>
<!-- \\QXS\\WorkerPool\\WorkerPoolException&#45;&gt;\\Exception -->
<g id="edge11" class="edge"><title>\\QXS\\WorkerPool\\WorkerPoolException&#45;&gt;\\Exception</title>
<path fill="none" stroke="black" d="M194.798,-343.934C191.17,-341.33 187.834,-338.367 185,-335 100.049,-234.048 194.799,-150.522 113,-47 110.494,-43.8281 107.529,-40.9787 104.3,-38.4262"/>
<polygon fill="none" stroke="black" points="106.077,-35.4018 95.8375,-32.6788 102.144,-41.1926 106.077,-35.4018"/>
</g>
<!-- \\QXS\\WorkerPool\\SimpleSocketException -->
<g id="node8" class="node"><title>\\QXS\\WorkerPool\\SimpleSocketException</title>
<polygon fill="none" stroke="black" points="307,-326 185,-326 185,-290 307,-290 307,-326"/>
<text text-anchor="middle" x="246" y="-305.6" font-family="Times Roman,serif" font-size="11.00">SimpleSocketException</text>
</g>
<!-- \\QXS\\WorkerPool\\SimpleSocketException&#45;&gt;\\Exception -->
<g id="edge13" class="edge"><title>\\QXS\\WorkerPool\\SimpleSocketException&#45;&gt;\\Exception</title>
<path fill="none" stroke="black" d="M195.282,-289.968C191.501,-287.351 188,-284.377 185,-281 112.738,-199.648 182.721,-130.54 113,-47 110.41,-43.8963 107.387,-41.0947 104.118,-38.5742"/>
<polygon fill="none" stroke="black" points="105.853,-35.5241 95.5944,-32.8763 101.963,-41.3436 105.853,-35.5241"/>
</g>
<!-- \\QXS\\WorkerPool\\SimpleSocket -->
<g id="node9" class="node"><title>\\QXS\\WorkerPool\\SimpleSocket</title>
<polygon fill="none" stroke="black" points="284,-272 208,-272 208,-236 284,-236 284,-272"/>
<text text-anchor="middle" x="246" y="-251.6" font-family="Times Roman,serif" font-size="11.00">SimpleSocket</text>
</g>
<!-- \\QXS\\WorkerPool\\SemaphoreException -->
<g id="node10" class="node"><title>\\QXS\\WorkerPool\\SemaphoreException</title>
<polygon fill="none" stroke="black" points="301,-218 191,-218 191,-182 301,-182 301,-218"/>
<text text-anchor="middle" x="246" y="-197.6" font-family="Times Roman,serif" font-size="11.00">SemaphoreException</text>
</g>
<!-- \\QXS\\WorkerPool\\SemaphoreException&#45;&gt;\\Exception -->
<g id="edge15" class="edge"><title>\\QXS\\WorkerPool\\SemaphoreException&#45;&gt;\\Exception</title>
<path fill="none" stroke="black" d="M233.494,-181.518C211.847,-150.581 164.719,-87.7045 113,-47 109.402,-44.1681 105.473,-41.4923 101.43,-39.0009"/>
<polygon fill="none" stroke="black" points="102.891,-35.8037 92.4774,-33.8524 99.4012,-41.8718 102.891,-35.8037"/>
</g>
</g>
</svg>
