<?xml version="1.0" encoding="UTF-8" standalone="no"?>
<!DOCTYPE svg PUBLIC "-//W3C//DTD SVG 1.1//EN"
 "http://www.w3.org/Graphics/SVG/1.1/DTD/svg11.dtd">
<!-- Generated by graphviz version 2.26.0 (20091210.2329)
 -->
<!-- Title: G Pages: 1 -->
<svg width="339pt" height="597pt"
 viewBox="0.00 0.00 339.00 597.00" xmlns="http://www.w3.org/2000/svg" xmlns:xlink="http://www.w3.org/1999/xlink">
<g id="graph1" class="graph" transform="scale(1 1) rotate(0) translate(4 593)">
<title>G</title>
<polygon fill="white" stroke="white" points="-4,5 -4,-593 336,-593 336,5 -4,5"/>
<g id="graph2" class="cluster"><title>cluster_Global</title>
<polyline fill="none" stroke="gray" points="20,-158 311,-158 "/>
<path fill="none" stroke="gray" d="M311,-158C317,-158 323,-164 323,-170"/>
<polyline fill="none" stroke="gray" points="323,-170 323,-569 "/>
<path fill="none" stroke="gray" d="M323,-569C323,-575 317,-581 311,-581"/>
<polyline fill="none" stroke="gray" points="311,-581 20,-581 "/>
<path fill="none" stroke="gray" d="M20,-581C14,-581 8,-575 8,-569"/>
<polyline fill="none" stroke="gray" points="8,-569 8,-170 "/>
<path fill="none" stroke="gray" d="M8,-170C8,-164 14,-158 20,-158"/>
<text text-anchor="middle" x="165.5" y="-567.1" font-family="Times Roman,serif" font-size="11.00" fill="gray">Global</text>
</g>
<g id="graph3" class="cluster"><title>cluster_\QXS</title>
<polyline fill="none" stroke="gray" points="28,-166 303,-166 "/>
<path fill="none" stroke="gray" d="M303,-166C309,-166 315,-172 315,-178"/>
<polyline fill="none" stroke="gray" points="315,-178 315,-538 "/>
<path fill="none" stroke="gray" d="M315,-538C315,-544 309,-550 303,-550"/>
<polyline fill="none" stroke="gray" points="303,-550 28,-550 "/>
<path fill="none" stroke="gray" d="M28,-550C22,-550 16,-544 16,-538"/>
<polyline fill="none" stroke="gray" points="16,-538 16,-178 "/>
<path fill="none" stroke="gray" d="M16,-178C16,-172 22,-166 28,-166"/>
<text text-anchor="middle" x="165.5" y="-536.1" font-family="Times Roman,serif" font-size="11.00" fill="gray">QXS</text>
</g>
<g id="graph4" class="cluster"><title>cluster_\QXS\WorkerPool</title>
<polyline fill="none" stroke="gray" points="36,-174 295,-174 "/>
<path fill="none" stroke="gray" d="M295,-174C301,-174 307,-180 307,-186"/>
<polyline fill="none" stroke="gray" points="307,-186 307,-507 "/>
<path fill="none" stroke="gray" d="M307,-507C307,-513 301,-519 295,-519"/>
<polyline fill="none" stroke="gray" points="295,-519 36,-519 "/>
<path fill="none" stroke="gray" d="M36,-519C30,-519 24,-513 24,-507"/>
<polyline fill="none" stroke="gray" points="24,-507 24,-186 "/>
<path fill="none" stroke="gray" d="M24,-186C24,-180 30,-174 36,-174"/>
<text text-anchor="middle" x="165.5" y="-505.1" font-family="Times Roman,serif" font-size="11.00" fill="gray">WorkerPool</text>
</g>
<!-- \\QXS\\WorkerPool\\Semaphore -->
<g id="node4" class="node"><title>\\QXS\\WorkerPool\\Semaphore</title>
<polygon fill="none" stroke="black" points="275,-488 209,-488 209,-452 275,-452 275,-488"/>
<text text-anchor="middle" x="242" y="-467.6" font-family="Times Roman,serif" font-size="11.00">Semaphore</text>
</g>
<!-- \\QXS\\WorkerPool\\WorkerPool -->
<g id="node5" class="node"><title>\\QXS\\WorkerPool\\WorkerPool</title>
<polygon fill="none" stroke="black" points="277,-380 207,-380 207,-344 277,-344 277,-380"/>
<text text-anchor="middle" x="242" y="-359.6" font-family="Times Roman,serif" font-size="11.00">WorkerPool</text>
</g>
<!-- \\Iterator -->
<g id="node12" class="node"><title>\\Iterator</title>
<ellipse fill="none" stroke="black" cx="59" cy="-131" rx="41.9273" ry="19.0919"/>
<text text-anchor="middle" x="59" y="-127.9" font-family="Times Roman,serif" font-size="14.00" fill="gray">\Iterator</text>
</g>
<!-- \\QXS\\WorkerPool\\WorkerPool&#45;&gt;\\Iterator -->
<g id="edge5" class="edge"><title>\\QXS\\WorkerPool\\WorkerPool&#45;&gt;\\Iterator</title>
<path fill="none" stroke="black" stroke-dasharray="1,5" d="M206.867,-350.18C198.951,-346.284 191.098,-341.289 185,-335 129.305,-277.556 163.21,-232.296 113,-170 107.575,-163.27 100.715,-157.145 93.7189,-151.845"/>
<polygon fill="none" stroke="black" points="95.7005,-148.96 85.5226,-146.017 91.6437,-154.664 95.7005,-148.96"/>
</g>
<!-- \\Countable -->
<g id="node14" class="node"><title>\\Countable</title>
<ellipse fill="none" stroke="black" cx="59" cy="-75" rx="53.2379" ry="19.0919"/>
<text text-anchor="middle" x="59" y="-71.9" font-family="Times Roman,serif" font-size="14.00" fill="gray">\Countable</text>
</g>
<!-- \\QXS\\WorkerPool\\WorkerPool&#45;&gt;\\Countable -->
<g id="edge7" class="edge"><title>\\QXS\\WorkerPool\\WorkerPool&#45;&gt;\\Countable</title>
<path fill="none" stroke="black" stroke-dasharray="1,5" d="M206.954,-350.935C198.847,-346.989 190.885,-341.782 185,-335 114.245,-253.455 182.277,-185.805 113,-103 110.406,-99.8994 107.38,-97.1 104.11,-94.581"/>
<polygon fill="none" stroke="black" points="105.843,-91.5297 95.5835,-88.8854 101.955,-97.3505 105.843,-91.5297"/>
</g>
<!-- \\QXS\\WorkerPool\\ClosureWorker -->
<g id="node6" class="node"><title>\\QXS\\WorkerPool\\ClosureWorker</title>
<polygon fill="none" stroke="black" points="284,-434 200,-434 200,-398 284,-398 284,-434"/>
<text text-anchor="middle" x="242" y="-413.6" font-family="Times Roman,serif" font-size="11.00">ClosureWorker</text>
</g>
<!-- \\QXS\\WorkerPool\\Worker -->
<g id="node10" class="node"><title>\\QXS\\WorkerPool\\Worker</title>
<polygon fill="none" stroke="black" points="86,-434 32,-434 32,-398 86,-398 86,-434"/>
<text text-anchor="middle" x="59" y="-413.6" font-family="Times Roman,serif" font-size="11.00">Worker</text>
</g>
<!-- \\QXS\\WorkerPool\\ClosureWorker&#45;&gt;\\QXS\\WorkerPool\\Worker -->
<g id="edge9" class="edge"><title>\\QXS\\WorkerPool\\ClosureWorker&#45;&gt;\\QXS\\WorkerPool\\Worker</title>
<path fill="none" stroke="black" stroke-dasharray="1,5" d="M199.095,-416C167.815,-416 125.861,-416 96.0401,-416"/>
<polygon fill="none" stroke="black" points="96.0354,-412.5 86.0353,-416 96.0353,-419.5 96.0354,-412.5"/>
</g>
<!-- \\QXS\\WorkerPool\\WorkerPoolException -->
<g id="node7" class="node"><title>\\QXS\\WorkerPool\\WorkerPoolException</title>
<polygon fill="none" stroke="black" points="299,-326 185,-326 185,-290 299,-290 299,-326"/>
<text text-anchor="middle" x="242" y="-305.6" font-family="Times Roman,serif" font-size="11.00">WorkerPoolException</text>
</g>
<!-- \\Exception -->
<g id="node17" class="node"><title>\\Exception</title>
<ellipse fill="none" stroke="black" cx="59" cy="-19" rx="53.033" ry="19.0919"/>
<text text-anchor="middle" x="59" y="-15.9" font-family="Times Roman,serif" font-size="14.00" fill="gray">\Exception</text>
</g>
<!-- \\QXS\\WorkerPool\\WorkerPoolException&#45;&gt;\\Exception -->
<g id="edge11" class="edge"><title>\\QXS\\WorkerPool\\WorkerPoolException&#45;&gt;\\Exception</title>
<path fill="none" stroke="black" d="M194.862,-289.844C191.229,-287.248 187.866,-284.312 185,-281 113.788,-198.727 182.721,-130.54 113,-47 110.41,-43.8963 107.387,-41.0947 104.118,-38.5742"/>
<polygon fill="none" stroke="black" points="105.853,-35.5241 95.5944,-32.8763 101.963,-41.3436 105.853,-35.5241"/>
</g>
<!-- \\QXS\\WorkerPool\\SimpleSocket -->
<g id="node8" class="node"><title>\\QXS\\WorkerPool\\SimpleSocket</title>
<polygon fill="none" stroke="black" points="280,-272 204,-272 204,-236 280,-236 280,-272"/>
<text text-anchor="middle" x="242" y="-251.6" font-family="Times Roman,serif" font-size="11.00">SimpleSocket</text>
</g>
<!-- \\QXS\\WorkerPool\\SemaphoreException -->
<g id="node9" class="node"><title>\\QXS\\WorkerPool\\SemaphoreException</title>
<polygon fill="none" stroke="black" points="297,-218 187,-218 187,-182 297,-182 297,-218"/>
<text text-anchor="middle" x="242" y="-197.6" font-family="Times Roman,serif" font-size="11.00">SemaphoreException</text>
</g>
<!-- \\QXS\\WorkerPool\\SemaphoreException&#45;&gt;\\Exception -->
<g id="edge13" class="edge"><title>\\QXS\\WorkerPool\\SemaphoreException&#45;&gt;\\Exception</title>
<path fill="none" stroke="black" d="M230.33,-181.982C209.676,-151.18 164.022,-87.783 113,-47 109.423,-44.1411 105.509,-41.4473 101.474,-38.9449"/>
<polygon fill="none" stroke="black" points="102.943,-35.7515 92.533,-33.7822 99.443,-41.8136 102.943,-35.7515"/>
</g>
</g>
</svg>
