<?xml version="1.0" encoding="UTF-8" standalone="no"?>
<!DOCTYPE svg PUBLIC "-//W3C//DTD SVG 1.1//EN"
 "http://www.w3.org/Graphics/SVG/1.1/DTD/svg11.dtd">
<!-- Generated by graphviz version 2.26.0 (20091210.2329)
 -->
<!-- Title: G Pages: 1 -->
<svg width="406pt" height="815pt"
 viewBox="0.00 0.00 406.00 815.00" xmlns="http://www.w3.org/2000/svg" xmlns:xlink="http://www.w3.org/1999/xlink">
<g id="graph1" class="graph" transform="scale(1 1) rotate(0) translate(4 811)">
<title>G</title>
<polygon fill="white" stroke="white" points="-4,5 -4,-811 403,-811 403,5 -4,5"/>
<g id="graph2" class="cluster"><title>cluster_Global</title>
<polyline fill="none" stroke="gray" points="43,-214 378,-214 "/>
<path fill="none" stroke="gray" d="M378,-214C384,-214 390,-220 390,-226"/>
<polyline fill="none" stroke="gray" points="390,-226 390,-787 "/>
<path fill="none" stroke="gray" d="M390,-787C390,-793 384,-799 378,-799"/>
<polyline fill="none" stroke="gray" points="378,-799 43,-799 "/>
<path fill="none" stroke="gray" d="M43,-799C37,-799 31,-793 31,-787"/>
<polyline fill="none" stroke="gray" points="31,-787 31,-226 "/>
<path fill="none" stroke="gray" d="M31,-226C31,-220 37,-214 43,-214"/>
<text text-anchor="middle" x="210.5" y="-785.1" font-family="Times Roman,serif" font-size="11.00" fill="gray">Global</text>
</g>
<g id="graph3" class="cluster"><title>cluster_\QXS</title>
<polyline fill="none" stroke="gray" points="51,-222 370,-222 "/>
<path fill="none" stroke="gray" d="M370,-222C376,-222 382,-228 382,-234"/>
<polyline fill="none" stroke="gray" points="382,-234 382,-756 "/>
<path fill="none" stroke="gray" d="M382,-756C382,-762 376,-768 370,-768"/>
<polyline fill="none" stroke="gray" points="370,-768 51,-768 "/>
<path fill="none" stroke="gray" d="M51,-768C45,-768 39,-762 39,-756"/>
<polyline fill="none" stroke="gray" points="39,-756 39,-234 "/>
<path fill="none" stroke="gray" d="M39,-234C39,-228 45,-222 51,-222"/>
<text text-anchor="middle" x="210.5" y="-754.1" font-family="Times Roman,serif" font-size="11.00" fill="gray">QXS</text>
</g>
<g id="graph4" class="cluster"><title>cluster_\QXS\WorkerPool</title>
<polyline fill="none" stroke="gray" points="59,-230 362,-230 "/>
<path fill="none" stroke="gray" d="M362,-230C368,-230 374,-236 374,-242"/>
<polyline fill="none" stroke="gray" points="374,-242 374,-725 "/>
<path fill="none" stroke="gray" d="M374,-725C374,-731 368,-737 362,-737"/>
<polyline fill="none" stroke="gray" points="362,-737 59,-737 "/>
<path fill="none" stroke="gray" d="M59,-737C53,-737 47,-731 47,-725"/>
<polyline fill="none" stroke="gray" points="47,-725 47,-242 "/>
<path fill="none" stroke="gray" d="M47,-242C47,-236 53,-230 59,-230"/>
<text text-anchor="middle" x="210.5" y="-723.1" font-family="Times Roman,serif" font-size="11.00" fill="gray">WorkerPool</text>
</g>
<!-- \\QXS\\WorkerPool\\ProcessDetails -->
<g id="node4" class="node"><title>\\QXS\\WorkerPool\\ProcessDetails</title>
<polygon fill="none" stroke="black" points="342,-706 260,-706 260,-670 342,-670 342,-706"/>
<text text-anchor="middle" x="301" y="-685.6" font-family="Times Roman,serif" font-size="11.00">ProcessDetails</text>
</g>
<!-- \\QXS\\WorkerPool\\Semaphore -->
<g id="node5" class="node"><title>\\QXS\\WorkerPool\\Semaphore</title>
<polygon fill="none" stroke="black" points="334,-652 268,-652 268,-616 334,-616 334,-652"/>
<text text-anchor="middle" x="301" y="-631.6" font-family="Times Roman,serif" font-size="11.00">Semaphore</text>
</g>
<!-- \\QXS\\WorkerPool\\WorkerPool -->
<g id="node6" class="node"><title>\\QXS\\WorkerPool\\WorkerPool</title>
<polygon fill="none" stroke="black" points="336,-544 266,-544 266,-508 336,-508 336,-544"/>
<text text-anchor="middle" x="301" y="-523.6" font-family="Times Roman,serif" font-size="11.00">WorkerPool</text>
</g>
<!-- \\Iterator -->
<g id="node15" class="node"><title>\\Iterator</title>
<ellipse fill="none" stroke="black" cx="82" cy="-187" rx="41.9273" ry="19.0919"/>
<text text-anchor="middle" x="82" y="-183.9" font-family="Times Roman,serif" font-size="14.00" fill="gray">\Iterator</text>
</g>
<!-- \\QXS\\WorkerPool\\WorkerPool&#45;&gt;\\Iterator -->
<g id="edge5" class="edge"><title>\\QXS\\WorkerPool\\WorkerPool&#45;&gt;\\Iterator</title>
<path fill="none" stroke="black" stroke-dasharray="1,5" d="M265.943,-518.027C255.013,-513.97 243.793,-507.931 236,-499 153.497,-404.454 244.102,-322.589 164,-226 154.688,-214.771 141.393,-206.564 128.212,-200.662"/>
<polygon fill="none" stroke="black" points="129.273,-197.314 118.693,-196.761 126.619,-203.791 129.273,-197.314"/>
</g>
<!-- \\Countable -->
<g id="node17" class="node"><title>\\Countable</title>
<ellipse fill="none" stroke="black" cx="82" cy="-131" rx="53.2379" ry="19.0919"/>
<text text-anchor="middle" x="82" y="-127.9" font-family="Times Roman,serif" font-size="14.00" fill="gray">\Countable</text>
</g>
<!-- \\QXS\\WorkerPool\\WorkerPool&#45;&gt;\\Countable -->
<g id="edge7" class="edge"><title>\\QXS\\WorkerPool\\WorkerPool&#45;&gt;\\Countable</title>
<path fill="none" stroke="black" stroke-dasharray="1,5" d="M265.686,-518.246C254.737,-514.205 243.571,-508.12 236,-499 137.335,-380.156 266.454,-274.593 164,-159 157.631,-151.814 149.341,-146.471 140.483,-142.499"/>
<polygon fill="none" stroke="black" points="141.691,-139.213 131.103,-138.835 139.144,-145.734 141.691,-139.213"/>
</g>
<!-- \\QXS\\WorkerPool\\ClosureWorker -->
<g id="node7" class="node"><title>\\QXS\\WorkerPool\\ClosureWorker</title>
<polygon fill="none" stroke="black" points="343,-598 259,-598 259,-562 343,-562 343,-598"/>
<text text-anchor="middle" x="301" y="-577.6" font-family="Times Roman,serif" font-size="11.00">ClosureWorker</text>
</g>
<!-- \\QXS\\WorkerPool\\Worker -->
<g id="node13" class="node"><title>\\QXS\\WorkerPool\\Worker</title>
<polygon fill="none" stroke="black" points="109,-598 55,-598 55,-562 109,-562 109,-598"/>
<text text-anchor="middle" x="82" y="-577.6" font-family="Times Roman,serif" font-size="11.00">Worker</text>
</g>
<!-- \\QXS\\WorkerPool\\ClosureWorker&#45;&gt;\\QXS\\WorkerPool\\Worker -->
<g id="edge9" class="edge"><title>\\QXS\\WorkerPool\\ClosureWorker&#45;&gt;\\QXS\\WorkerPool\\Worker</title>
<path fill="none" stroke="black" stroke-dasharray="1,5" d="M258.255,-580C217.862,-580 157.873,-580 119.351,-580"/>
<polygon fill="none" stroke="black" points="119.09,-576.5 109.09,-580 119.09,-583.5 119.09,-576.5"/>
</g>
<!-- \\QXS\\WorkerPool\\WorkerPoolException -->
<g id="node8" class="node"><title>\\QXS\\WorkerPool\\WorkerPoolException</title>
<polygon fill="none" stroke="black" points="358,-490 244,-490 244,-454 358,-454 358,-490"/>
<text text-anchor="middle" x="301" y="-469.6" font-family="Times Roman,serif" font-size="11.00">WorkerPoolException</text>
</g>
<!-- \\Exception -->
<g id="node20" class="node"><title>\\Exception</title>
<ellipse fill="none" stroke="black" cx="82" cy="-75" rx="53.033" ry="19.0919"/>
<text text-anchor="middle" x="82" y="-71.9" font-family="Times Roman,serif" font-size="14.00" fill="gray">\Exception</text>
</g>
<!-- \\QXS\\WorkerPool\\WorkerPoolException&#45;&gt;\\Exception -->
<g id="edge11" class="edge"><title>\\QXS\\WorkerPool\\WorkerPoolException&#45;&gt;\\Exception</title>
<path fill="none" stroke="black" d="M245.716,-453.954C242.112,-451.354 238.808,-448.386 236,-445 136.851,-325.428 266.962,-219.305 164,-103 157.561,-95.7271 149.154,-90.3417 140.181,-86.3543"/>
<polygon fill="none" stroke="black" points="141.273,-83.0242 130.683,-82.6847 138.75,-89.5537 141.273,-83.0242"/>
</g>
<!-- \\QXS\\WorkerPool\\ProcessDetailsCollection -->
<g id="node9" class="node"><title>\\QXS\\WorkerPool\\ProcessDetailsCollection</title>
<polygon fill="none" stroke="black" points="365,-274 237,-274 237,-238 365,-238 365,-274"/>
<text text-anchor="middle" x="301" y="-253.6" font-family="Times Roman,serif" font-size="11.00">ProcessDetailsCollection</text>
</g>
<!-- \\IteratorAggregate -->
<g id="node22" class="node"><title>\\IteratorAggregate</title>
<ellipse fill="none" stroke="black" cx="82" cy="-19" rx="82.0244" ry="19.0919"/>
<text text-anchor="middle" x="82" y="-15.9" font-family="Times Roman,serif" font-size="14.00" fill="gray">\IteratorAggregate</text>
</g>
<!-- \\QXS\\WorkerPool\\ProcessDetailsCollection&#45;&gt;\\IteratorAggregate -->
<g id="edge13" class="edge"><title>\\QXS\\WorkerPool\\ProcessDetailsCollection&#45;&gt;\\IteratorAggregate</title>
<path fill="none" stroke="black" stroke-dasharray="1,5" d="M293.919,-237.705C277.387,-197.345 232.387,-100.054 164,-47 159.086,-43.1877 153.62,-39.8765 147.91,-37.004"/>
<polygon fill="none" stroke="black" points="149.329,-33.8045 138.778,-32.842 146.426,-40.1741 149.329,-33.8045"/>
</g>
<!-- \\QXS\\WorkerPool\\SimpleSocketException -->
<g id="node10" class="node"><title>\\QXS\\WorkerPool\\SimpleSocketException</title>
<polygon fill="none" stroke="black" points="362,-436 240,-436 240,-400 362,-400 362,-436"/>
<text text-anchor="middle" x="301" y="-415.6" font-family="Times Roman,serif" font-size="11.00">SimpleSocketException</text>
</g>
<!-- \\QXS\\WorkerPool\\SimpleSocketException&#45;&gt;\\Exception -->
<g id="edge15" class="edge"><title>\\QXS\\WorkerPool\\SimpleSocketException&#45;&gt;\\Exception</title>
<path fill="none" stroke="black" d="M245.855,-399.836C242.22,-397.263 238.871,-394.333 236,-391 149.894,-291.032 253.292,-200.133 164,-103 157.426,-95.849 148.952,-90.524 139.954,-86.5589"/>
<polygon fill="none" stroke="black" points="141.035,-83.2248 130.445,-82.8995 138.521,-89.7577 141.035,-83.2248"/>
</g>
<!-- \\QXS\\WorkerPool\\SimpleSocket -->
<g id="node11" class="node"><title>\\QXS\\WorkerPool\\SimpleSocket</title>
<polygon fill="none" stroke="black" points="339,-328 263,-328 263,-292 339,-292 339,-328"/>
<text text-anchor="middle" x="301" y="-307.6" font-family="Times Roman,serif" font-size="11.00">SimpleSocket</text>
</g>
<!-- \\QXS\\WorkerPool\\SemaphoreException -->
<g id="node12" class="node"><title>\\QXS\\WorkerPool\\SemaphoreException</title>
<polygon fill="none" stroke="black" points="356,-382 246,-382 246,-346 356,-346 356,-382"/>
<text text-anchor="middle" x="301" y="-361.6" font-family="Times Roman,serif" font-size="11.00">SemaphoreException</text>
</g>
<!-- \\QXS\\WorkerPool\\SemaphoreException&#45;&gt;\\Exception -->
<g id="edge17" class="edge"><title>\\QXS\\WorkerPool\\SemaphoreException&#45;&gt;\\Exception</title>
<path fill="none" stroke="black" d="M246.358,-345.874C242.561,-343.288 239.041,-340.345 236,-337 162.807,-256.485 239.757,-181.108 164,-103 157.237,-96.0275 148.669,-90.7909 139.637,-86.8582"/>
<polygon fill="none" stroke="black" points="140.703,-83.5187 130.112,-83.2139 138.201,-90.0565 140.703,-83.5187"/>
</g>
</g>
</svg>
