<?xml version="1.0" encoding="UTF-8" standalone="no"?>
<!DOCTYPE svg PUBLIC "-//W3C//DTD SVG 1.1//EN"
 "http://www.w3.org/Graphics/SVG/1.1/DTD/svg11.dtd">
<!-- Generated by graphviz version 2.26.0 (20091210.2329)
 -->
<!-- Title: G Pages: 1 -->
<svg width="347pt" height="651pt"
 viewBox="0.00 0.00 347.00 651.00" xmlns="http://www.w3.org/2000/svg" xmlns:xlink="http://www.w3.org/1999/xlink">
<g id="graph1" class="graph" transform="scale(1 1) rotate(0) translate(4 647)">
<title>G</title>
<polygon fill="white" stroke="white" points="-4,5 -4,-647 344,-647 344,5 -4,5"/>
<g id="graph2" class="cluster"><title>cluster_Global</title>
<polyline fill="none" stroke="gray" points="20,-158 319,-158 "/>
<path fill="none" stroke="gray" d="M319,-158C325,-158 331,-164 331,-170"/>
<polyline fill="none" stroke="gray" points="331,-170 331,-623 "/>
<path fill="none" stroke="gray" d="M331,-623C331,-629 325,-635 319,-635"/>
<polyline fill="none" stroke="gray" points="319,-635 20,-635 "/>
<path fill="none" stroke="gray" d="M20,-635C14,-635 8,-629 8,-623"/>
<polyline fill="none" stroke="gray" points="8,-623 8,-170 "/>
<path fill="none" stroke="gray" d="M8,-170C8,-164 14,-158 20,-158"/>
<text text-anchor="middle" x="169.5" y="-621.1" font-family="Times Roman,serif" font-size="11.00" fill="gray">Global</text>
</g>
<g id="graph3" class="cluster"><title>cluster_\QXS</title>
<polyline fill="none" stroke="gray" points="28,-166 311,-166 "/>
<path fill="none" stroke="gray" d="M311,-166C317,-166 323,-172 323,-178"/>
<polyline fill="none" stroke="gray" points="323,-178 323,-592 "/>
<path fill="none" stroke="gray" d="M323,-592C323,-598 317,-604 311,-604"/>
<polyline fill="none" stroke="gray" points="311,-604 28,-604 "/>
<path fill="none" stroke="gray" d="M28,-604C22,-604 16,-598 16,-592"/>
<polyline fill="none" stroke="gray" points="16,-592 16,-178 "/>
<path fill="none" stroke="gray" d="M16,-178C16,-172 22,-166 28,-166"/>
<text text-anchor="middle" x="169.5" y="-590.1" font-family="Times Roman,serif" font-size="11.00" fill="gray">QXS</text>
</g>
<g id="graph4" class="cluster"><title>cluster_\QXS\WorkerPool</title>
<polyline fill="none" stroke="gray" points="36,-174 303,-174 "/>
<path fill="none" stroke="gray" d="M303,-174C309,-174 315,-180 315,-186"/>
<polyline fill="none" stroke="gray" points="315,-186 315,-561 "/>
<path fill="none" stroke="gray" d="M315,-561C315,-567 309,-573 303,-573"/>
<polyline fill="none" stroke="gray" points="303,-573 36,-573 "/>
<path fill="none" stroke="gray" d="M36,-573C30,-573 24,-567 24,-561"/>
<polyline fill="none" stroke="gray" points="24,-561 24,-186 "/>
<path fill="none" stroke="gray" d="M24,-186C24,-180 30,-174 36,-174"/>
<text text-anchor="middle" x="169.5" y="-559.1" font-family="Times Roman,serif" font-size="11.00" fill="gray">WorkerPool</text>
</g>
<!-- \\QXS\\WorkerPool\\SemaphoreException -->
<g id="node4" class="node"><title>\\QXS\\WorkerPool\\SemaphoreException</title>
<polygon fill="none" stroke="black" points="301,-434 191,-434 191,-398 301,-398 301,-434"/>
<text text-anchor="middle" x="246" y="-413.6" font-family="Times Roman,serif" font-size="11.00">SemaphoreException</text>
</g>
<!-- \\Exception -->
<g id="node13" class="node"><title>\\Exception</title>
<ellipse fill="none" stroke="black" cx="59" cy="-131" rx="53.033" ry="19.0919"/>
<text text-anchor="middle" x="59" y="-127.9" font-family="Times Roman,serif" font-size="14.00" fill="gray">\Exception</text>
</g>
<!-- \\QXS\\WorkerPool\\SemaphoreException&#45;&gt;\\Exception -->
<g id="edge5" class="edge"><title>\\QXS\\WorkerPool\\SemaphoreException&#45;&gt;\\Exception</title>
<path fill="none" stroke="black" d="M195.351,-397.906C191.555,-395.303 188.032,-392.348 185,-389 116.227,-313.052 173.485,-252.7 113,-170 108.344,-163.634 102.336,-157.891 96.0268,-152.893"/>
<polygon fill="none" stroke="black" points="98.086,-150.062 87.9533,-146.967 93.9442,-155.706 98.086,-150.062"/>
</g>
<!-- \\QXS\\WorkerPool\\SimpleSocket -->
<g id="node5" class="node"><title>\\QXS\\WorkerPool\\SimpleSocket</title>
<polygon fill="none" stroke="black" points="284,-488 208,-488 208,-452 284,-452 284,-488"/>
<text text-anchor="middle" x="246" y="-467.6" font-family="Times Roman,serif" font-size="11.00">SimpleSocket</text>
</g>
<!-- \\QXS\\WorkerPool\\SimpleSocketException -->
<g id="node6" class="node"><title>\\QXS\\WorkerPool\\SimpleSocketException</title>
<polygon fill="none" stroke="black" points="307,-380 185,-380 185,-344 307,-344 307,-380"/>
<text text-anchor="middle" x="246" y="-359.6" font-family="Times Roman,serif" font-size="11.00">SimpleSocketException</text>
</g>
<!-- \\QXS\\WorkerPool\\SimpleSocketException&#45;&gt;\\Exception -->
<g id="edge7" class="edge"><title>\\QXS\\WorkerPool\\SimpleSocketException&#45;&gt;\\Exception</title>
<path fill="none" stroke="black" d="M196.279,-343.979C192.19,-341.347 188.349,-338.366 185,-335 128.572,-278.275 163.21,-232.296 113,-170 107.999,-163.796 101.779,-158.106 95.3565,-153.103"/>
<polygon fill="none" stroke="black" points="97.3327,-150.212 87.1912,-147.146 93.2073,-155.868 97.3327,-150.212"/>
</g>
<!-- \\QXS\\WorkerPool\\WorkerPoolException -->
<g id="node7" class="node"><title>\\QXS\\WorkerPool\\WorkerPoolException</title>
<polygon fill="none" stroke="black" points="303,-326 189,-326 189,-290 303,-290 303,-326"/>
<text text-anchor="middle" x="246" y="-305.6" font-family="Times Roman,serif" font-size="11.00">WorkerPoolException</text>
</g>
<!-- \\QXS\\WorkerPool\\WorkerPoolException&#45;&gt;\\Exception -->
<g id="edge9" class="edge"><title>\\QXS\\WorkerPool\\WorkerPoolException&#45;&gt;\\Exception</title>
<path fill="none" stroke="black" d="M197.764,-289.921C193.224,-287.274 188.878,-284.306 185,-281 140.255,-242.847 153.526,-212.608 113,-170 107.396,-164.108 100.797,-158.511 94.1719,-153.491"/>
<polygon fill="none" stroke="black" points="95.9927,-150.488 85.8393,-147.462 91.8893,-156.159 95.9927,-150.488"/>
</g>
<!-- \\QXS\\WorkerPool\\WorkerPool -->
<g id="node8" class="node"><title>\\QXS\\WorkerPool\\WorkerPool</title>
<polygon fill="none" stroke="black" points="281,-218 211,-218 211,-182 281,-182 281,-218"/>
<text text-anchor="middle" x="246" y="-197.6" font-family="Times Roman,serif" font-size="11.00">WorkerPool</text>
</g>
<!-- \\Iterator -->
<g id="node17" class="node"><title>\\Iterator</title>
<ellipse fill="none" stroke="black" cx="59" cy="-75" rx="41.9273" ry="19.0919"/>
<text text-anchor="middle" x="59" y="-71.9" font-family="Times Roman,serif" font-size="14.00" fill="gray">\Iterator</text>
</g>
<!-- \\QXS\\WorkerPool\\WorkerPool&#45;&gt;\\Iterator -->
<g id="edge11" class="edge"><title>\\QXS\\WorkerPool\\WorkerPool&#45;&gt;\\Iterator</title>
<path fill="none" stroke="black" stroke-dasharray="1,5" d="M223.201,-181.721C197.286,-161.342 153.339,-127.968 113,-103 107.938,-99.8667 102.486,-96.7556 97.0629,-93.8088"/>
<polygon fill="none" stroke="black" points="98.5106,-90.6151 88.035,-89.0298 95.2356,-96.8017 98.5106,-90.6151"/>
</g>
<!-- \\Countable -->
<g id="node19" class="node"><title>\\Countable</title>
<ellipse fill="none" stroke="black" cx="59" cy="-19" rx="53.2379" ry="19.0919"/>
<text text-anchor="middle" x="59" y="-15.9" font-family="Times Roman,serif" font-size="14.00" fill="gray">\Countable</text>
</g>
<!-- \\QXS\\WorkerPool\\WorkerPool&#45;&gt;\\Countable -->
<g id="edge13" class="edge"><title>\\QXS\\WorkerPool\\WorkerPool&#45;&gt;\\Countable</title>
<path fill="none" stroke="black" stroke-dasharray="1,5" d="M233.494,-181.518C211.847,-150.581 164.719,-87.7045 113,-47 109.402,-44.1681 105.473,-41.4923 101.43,-39.0009"/>
<polygon fill="none" stroke="black" points="102.891,-35.8037 92.4774,-33.8524 99.4012,-41.8718 102.891,-35.8037"/>
</g>
<!-- \\QXS\\WorkerPool\\Semaphore -->
<g id="node9" class="node"><title>\\QXS\\WorkerPool\\Semaphore</title>
<polygon fill="none" stroke="black" points="279,-272 213,-272 213,-236 279,-236 279,-272"/>
<text text-anchor="middle" x="246" y="-251.6" font-family="Times Roman,serif" font-size="11.00">Semaphore</text>
</g>
<!-- \\QXS\\WorkerPool\\ClosureWorker -->
<g id="node10" class="node"><title>\\QXS\\WorkerPool\\ClosureWorker</title>
<polygon fill="none" stroke="black" points="288,-542 204,-542 204,-506 288,-506 288,-542"/>
<text text-anchor="middle" x="246" y="-521.6" font-family="Times Roman,serif" font-size="11.00">ClosureWorker</text>
</g>
<!-- \\QXS\\WorkerPool\\Worker -->
<g id="node11" class="node"><title>\\QXS\\WorkerPool\\Worker</title>
<polygon fill="none" stroke="black" points="86,-542 32,-542 32,-506 86,-506 86,-542"/>
<text text-anchor="middle" x="59" y="-521.6" font-family="Times Roman,serif" font-size="11.00">Worker</text>
</g>
<!-- \\QXS\\WorkerPool\\ClosureWorker&#45;&gt;\\QXS\\WorkerPool\\Worker -->
<g id="edge15" class="edge"><title>\\QXS\\WorkerPool\\ClosureWorker&#45;&gt;\\QXS\\WorkerPool\\Worker</title>
<path fill="none" stroke="black" stroke-dasharray="1,5" d="M203.098,-524C170.882,-524 127.196,-524 96.3972,-524"/>
<polygon fill="none" stroke="black" points="96.0806,-520.5 86.0806,-524 96.0805,-527.5 96.0806,-520.5"/>
</g>
</g>
</svg>
