<?xml version="1.0" encoding="UTF-8" standalone="no"?>
<!DOCTYPE svg PUBLIC "-//W3C//DTD SVG 1.1//EN"
 "http://www.w3.org/Graphics/SVG/1.1/DTD/svg11.dtd">
<!-- Generated by graphviz version 2.26.0 (20091210.2329)
 -->
<!-- Title: G Pages: 1 -->
<svg width="339pt" height="597pt"
 viewBox="0.00 0.00 339.00 597.00" xmlns="http://www.w3.org/2000/svg" xmlns:xlink="http://www.w3.org/1999/xlink">
<g id="graph1" class="graph" transform="scale(1 1) rotate(0) translate(4 593)">
<title>G</title>
<polygon fill="white" stroke="white" points="-4,5 -4,-593 336,-593 336,5 -4,5"/>
<g id="graph2" class="cluster"><title>cluster_Global</title>
<polyline fill="none" stroke="gray" points="20,-158 311,-158 "/>
<path fill="none" stroke="gray" d="M311,-158C317,-158 323,-164 323,-170"/>
<polyline fill="none" stroke="gray" points="323,-170 323,-569 "/>
<path fill="none" stroke="gray" d="M323,-569C323,-575 317,-581 311,-581"/>
<polyline fill="none" stroke="gray" points="311,-581 20,-581 "/>
<path fill="none" stroke="gray" d="M20,-581C14,-581 8,-575 8,-569"/>
<polyline fill="none" stroke="gray" points="8,-569 8,-170 "/>
<path fill="none" stroke="gray" d="M8,-170C8,-164 14,-158 20,-158"/>
<text text-anchor="middle" x="165.5" y="-567.1" font-family="Times Roman,serif" font-size="11.00" fill="gray">Global</text>
</g>
<g id="graph3" class="cluster"><title>cluster_\QXS</title>
<polyline fill="none" stroke="gray" points="28,-166 303,-166 "/>
<path fill="none" stroke="gray" d="M303,-166C309,-166 315,-172 315,-178"/>
<polyline fill="none" stroke="gray" points="315,-178 315,-538 "/>
<path fill="none" stroke="gray" d="M315,-538C315,-544 309,-550 303,-550"/>
<polyline fill="none" stroke="gray" points="303,-550 28,-550 "/>
<path fill="none" stroke="gray" d="M28,-550C22,-550 16,-544 16,-538"/>
<polyline fill="none" stroke="gray" points="16,-538 16,-178 "/>
<path fill="none" stroke="gray" d="M16,-178C16,-172 22,-166 28,-166"/>
<text text-anchor="middle" x="165.5" y="-536.1" font-family="Times Roman,serif" font-size="11.00" fill="gray">QXS</text>
</g>
<g id="graph4" class="cluster"><title>cluster_\QXS\WorkerPool</title>
<polyline fill="none" stroke="gray" points="36,-174 295,-174 "/>
<path fill="none" stroke="gray" d="M295,-174C301,-174 307,-180 307,-186"/>
<polyline fill="none" stroke="gray" points="307,-186 307,-507 "/>
<path fill="none" stroke="gray" d="M307,-507C307,-513 301,-519 295,-519"/>
<polyline fill="none" stroke="gray" points="295,-519 36,-519 "/>
<path fill="none" stroke="gray" d="M36,-519C30,-519 24,-513 24,-507"/>
<polyline fill="none" stroke="gray" points="24,-507 24,-186 "/>
<path fill="none" stroke="gray" d="M24,-186C24,-180 30,-174 36,-174"/>
<text text-anchor="middle" x="165.5" y="-505.1" font-family="Times Roman,serif" font-size="11.00" fill="gray">WorkerPool</text>
</g>
<!-- \\QXS\\WorkerPool\\ClosureWorker -->
<g id="node4" class="node"><title>\\QXS\\WorkerPool\\ClosureWorker</title>
<polygon fill="none" stroke="black" points="284,-488 200,-488 200,-452 284,-452 284,-488"/>
<text text-anchor="middle" x="242" y="-467.6" font-family="Times Roman,serif" font-size="11.00">ClosureWorker</text>
</g>
<!-- \\QXS\\WorkerPool\\Worker -->
<g id="node10" class="node"><title>\\QXS\\WorkerPool\\Worker</title>
<polygon fill="none" stroke="black" points="86,-488 32,-488 32,-452 86,-452 86,-488"/>
<text text-anchor="middle" x="59" y="-467.6" font-family="Times Roman,serif" font-size="11.00">Worker</text>
</g>
<!-- \\QXS\\WorkerPool\\ClosureWorker&#45;&gt;\\QXS\\WorkerPool\\Worker -->
<g id="edge5" class="edge"><title>\\QXS\\WorkerPool\\ClosureWorker&#45;&gt;\\QXS\\WorkerPool\\Worker</title>
<path fill="none" stroke="black" stroke-dasharray="1,5" d="M199.095,-470C167.815,-470 125.861,-470 96.0401,-470"/>
<polygon fill="none" stroke="black" points="96.0354,-466.5 86.0353,-470 96.0353,-473.5 96.0354,-466.5"/>
</g>
<!-- \\QXS\\WorkerPool\\WorkerPoolException -->
<g id="node5" class="node"><title>\\QXS\\WorkerPool\\WorkerPoolException</title>
<polygon fill="none" stroke="black" points="299,-434 185,-434 185,-398 299,-398 299,-434"/>
<text text-anchor="middle" x="242" y="-413.6" font-family="Times Roman,serif" font-size="11.00">WorkerPoolException</text>
</g>
<!-- \\Exception -->
<g id="node13" class="node"><title>\\Exception</title>
<ellipse fill="none" stroke="black" cx="59" cy="-131" rx="53.033" ry="19.0919"/>
<text text-anchor="middle" x="59" y="-127.9" font-family="Times Roman,serif" font-size="14.00" fill="gray">\Exception</text>
</g>
<!-- \\QXS\\WorkerPool\\WorkerPoolException&#45;&gt;\\Exception -->
<g id="edge7" class="edge"><title>\\QXS\\WorkerPool\\WorkerPoolException&#45;&gt;\\Exception</title>
<path fill="none" stroke="black" d="M195.203,-397.979C191.452,-395.347 187.97,-392.366 185,-389 117.207,-312.176 173.485,-252.7 113,-170 108.344,-163.634 102.336,-157.891 96.0268,-152.893"/>
<polygon fill="none" stroke="black" points="98.086,-150.062 87.9533,-146.967 93.9442,-155.706 98.086,-150.062"/>
</g>
<!-- \\QXS\\WorkerPool\\WorkerPool -->
<g id="node6" class="node"><title>\\QXS\\WorkerPool\\WorkerPool</title>
<polygon fill="none" stroke="black" points="277,-326 207,-326 207,-290 277,-290 277,-326"/>
<text text-anchor="middle" x="242" y="-305.6" font-family="Times Roman,serif" font-size="11.00">WorkerPool</text>
</g>
<!-- \\Iterator -->
<g id="node15" class="node"><title>\\Iterator</title>
<ellipse fill="none" stroke="black" cx="59" cy="-75" rx="41.9273" ry="19.0919"/>
<text text-anchor="middle" x="59" y="-71.9" font-family="Times Roman,serif" font-size="14.00" fill="gray">\Iterator</text>
</g>
<!-- \\QXS\\WorkerPool\\WorkerPool&#45;&gt;\\Iterator -->
<g id="edge9" class="edge"><title>\\QXS\\WorkerPool\\WorkerPool&#45;&gt;\\Iterator</title>
<path fill="none" stroke="black" stroke-dasharray="1,5" d="M206.745,-296.296C198.833,-292.397 191.012,-287.371 185,-281 126.432,-218.933 170.442,-166.111 113,-103 109.448,-99.0975 105.225,-95.6517 100.729,-92.633"/>
<polygon fill="none" stroke="black" points="102.233,-89.4549 91.8498,-87.3465 98.6517,-95.4696 102.233,-89.4549"/>
</g>
<!-- \\Countable -->
<g id="node17" class="node"><title>\\Countable</title>
<ellipse fill="none" stroke="black" cx="59" cy="-19" rx="53.2379" ry="19.0919"/>
<text text-anchor="middle" x="59" y="-15.9" font-family="Times Roman,serif" font-size="14.00" fill="gray">\Countable</text>
</g>
<!-- \\QXS\\WorkerPool\\WorkerPool&#45;&gt;\\Countable -->
<g id="edge11" class="edge"><title>\\QXS\\WorkerPool\\WorkerPool&#45;&gt;\\Countable</title>
<path fill="none" stroke="black" stroke-dasharray="1,5" d="M206.942,-296.945C198.836,-292.999 190.876,-287.789 185,-281 113.788,-198.727 182.721,-130.54 113,-47 110.41,-43.8963 107.387,-41.0947 104.118,-38.5742"/>
<polygon fill="none" stroke="black" points="105.853,-35.5241 95.5944,-32.8763 101.963,-41.3436 105.853,-35.5241"/>
</g>
<!-- \\QXS\\WorkerPool\\SemaphoreException -->
<g id="node7" class="node"><title>\\QXS\\WorkerPool\\SemaphoreException</title>
<polygon fill="none" stroke="black" points="297,-380 187,-380 187,-344 297,-344 297,-380"/>
<text text-anchor="middle" x="242" y="-359.6" font-family="Times Roman,serif" font-size="11.00">SemaphoreException</text>
</g>
<!-- \\QXS\\WorkerPool\\SemaphoreException&#45;&gt;\\Exception -->
<g id="edge13" class="edge"><title>\\QXS\\WorkerPool\\SemaphoreException&#45;&gt;\\Exception</title>
<path fill="none" stroke="black" d="M195.81,-343.864C191.886,-341.247 188.201,-338.302 185,-335 129.305,-277.556 163.21,-232.296 113,-170 107.999,-163.796 101.779,-158.106 95.3565,-153.103"/>
<polygon fill="none" stroke="black" points="97.3327,-150.212 87.1912,-147.146 93.2073,-155.868 97.3327,-150.212"/>
</g>
<!-- \\QXS\\WorkerPool\\Semaphore -->
<g id="node8" class="node"><title>\\QXS\\WorkerPool\\Semaphore</title>
<polygon fill="none" stroke="black" points="275,-272 209,-272 209,-236 275,-236 275,-272"/>
<text text-anchor="middle" x="242" y="-251.6" font-family="Times Roman,serif" font-size="11.00">Semaphore</text>
</g>
<!-- \\QXS\\WorkerPool\\SimpleSocket -->
<g id="node9" class="node"><title>\\QXS\\WorkerPool\\SimpleSocket</title>
<polygon fill="none" stroke="black" points="280,-218 204,-218 204,-182 280,-182 280,-218"/>
<text text-anchor="middle" x="242" y="-197.6" font-family="Times Roman,serif" font-size="11.00">SimpleSocket</text>
</g>
</g>
</svg>
